<svg width="150" height="150" viewBox="0 0 150 150" fill="none" xmlns="http://www.w3.org/2000/svg">
<rect width="150" height="150" fill="white"/>
<path d="M101.973 96.2212L106.505 48.1692H13.3223L17.8543 96.2212H101.973Z" fill="#A9E3F8"/>
<path d="M106.789 143.98H13.0383C11.861 143.98 10.8756 143.085 10.7649 141.912L1.01029 38.4973C0.891623 37.2413 1.81295 36.128 3.06895 36.0093C4.33162 35.9 5.43694 36.8133 5.5556 38.068L15.1156 139.416H104.712L114.272 38.068C114.39 36.8133 115.496 35.8973 116.758 36.0093C118.013 36.128 118.936 37.2413 118.817 38.4973L109.061 141.912C108.95 143.085 107.966 143.98 106.789 143.98Z" fill="#2F1514"/>
<path d="M17.8542 96.2212L21.3476 133.252H98.4783L101.973 96.2212H17.8542Z" fill="#2F1514"/>
<path d="M146.481 68.3905C143.92 64.0038 139.412 61.1718 133.444 60.2012C127.609 59.2532 121.285 60.3025 114.377 63.3572C114.062 68.3092 113.67 73.9838 113.194 79.9732C117.801 76.8252 122.958 74.0731 127.949 73.2824C129.597 73.0211 130.836 73.2252 131.641 73.8852C132.616 74.6812 133.068 76.1745 132.821 77.7811C132.329 80.9771 129.586 84.1932 126.82 87.2132C122.548 91.8758 117.265 96.1158 111.382 99.6651C110.765 105.448 110.07 111.12 109.293 116.344C111.341 115.405 113.332 114.418 115.23 113.432C123.5 109.136 138.492 99.9438 146.012 86.6398C149.336 80.7598 149.521 73.5958 146.481 68.3905Z" fill="#2F1514"/>
<text fill="white" xml:space="preserve" style="white-space: pre" font-family="Inter" font-size="11" font-weight="bold" letter-spacing="0em"><tspan x="30.7277" y="116.598">ESPRESSO</tspan></text>
<text fill="white" xml:space="preserve" style="white-space: pre" font-family="Inter" font-size="11" font-weight="bold" letter-spacing="0em"><tspan x="27.5386" y="74.3672">HOT WATER</tspan></text>
</svg>
