<svg width="150" height="150" viewBox="0 0 150 150" fill="none" xmlns="http://www.w3.org/2000/svg">
<rect width="150" height="150" fill="white"/>
<path d="M18.5889 104.003L21.3475 133.252H98.4782L101.237 104.003H18.5889Z" fill="#2F1514"/>
<path d="M106.503 48.1696H13.3208L18.5888 104.003H101.237L106.503 48.1696Z" fill="#F8DCA8"/>
<path d="M106.788 143.98H13.0369C11.8609 143.98 10.8756 143.085 10.7649 141.912L1.01029 38.4973C0.891624 37.2413 1.81292 36.128 3.06758 36.0093C4.32492 35.9 5.4369 36.8133 5.55424 38.068L15.1156 139.416H104.709L114.27 38.068C114.388 36.8133 115.5 35.8973 116.757 36.0093C118.013 36.128 118.933 37.2413 118.814 38.4973L109.06 141.912C108.949 143.085 107.965 143.98 106.788 143.98Z" fill="#2F1514"/>
<path d="M146.48 68.3905C143.92 64.0038 139.41 61.1718 133.441 60.2012C127.608 59.2532 121.284 60.3025 114.374 63.3572C114.062 68.3092 113.669 73.9838 113.194 79.9732C117.8 76.8252 122.958 74.0731 127.949 73.2824C129.596 73.0211 130.836 73.2252 131.641 73.8852C132.614 74.6812 133.066 76.1745 132.818 77.7811C132.327 80.9771 129.586 84.1932 126.818 87.2132C122.546 91.8758 117.263 96.1158 111.381 99.6651C110.763 105.448 110.069 111.12 109.292 116.344C111.341 115.405 113.33 114.418 115.23 113.432C123.498 109.136 138.49 99.9438 146.011 86.6398C149.335 80.7598 149.52 73.5958 146.48 68.3905Z" fill="#2F1514"/>
<text fill="white" xml:space="preserve" style="white-space: pre" font-family="Inter" font-size="11" font-weight="bold" letter-spacing="0em"><tspan x="30.7275" y="116.598">ESPRESSO</tspan></text>
<text fill="#2F1514" xml:space="preserve" style="white-space: pre" font-family="Inter" font-size="11" font-weight="bold" letter-spacing="0em"><tspan x="34.4224" y="73.2256">STEAMED</tspan></text>
<text fill="#2F1514" xml:space="preserve" style="white-space: pre" font-family="Inter" font-size="11" font-weight="bold" letter-spacing="0em"><tspan x="47.7009" y="85.7803">MILK</tspan></text>
</svg>
