<svg width="148" height="118" viewBox="0 0 148 118" fill="none" xmlns="http://www.w3.org/2000/svg">
<path d="M16 56L19.886 107H97.7844L101 56H16Z" fill="#721E1C"/>
<path d="M15.1473 25.3364C46.9398 27.5667 72.9289 30.0054 102.833 25.3364C107.544 -8.77707 10.7206 -8.11223 15.1473 25.3364Z" fill="#F0BA42"/>
<path d="M101.5 56L103 25H15L16.5 56H101.5Z" fill="#FCD276"/>
<path d="M105.789 117.981H12.0383C10.861 117.981 9.87563 117.085 9.76496 115.913L0.0102901 12.497C-0.108377 11.241 0.812949 10.1276 2.06895 10.0103C3.32895 9.89298 4.43695 10.813 4.55562 12.069L14.1156 113.416H103.712L113.272 12.069C113.39 10.813 114.493 9.89031 115.758 10.0103C117.013 10.1276 117.936 11.241 117.817 12.497L108.061 115.913C107.95 117.085 106.966 117.981 105.789 117.981Z" fill="#2F1514"/>
<path d="M145.481 42.3906C142.92 38.0052 138.412 35.1732 132.444 34.2012C126.609 33.2532 120.285 34.3026 113.377 37.3573C113.062 42.3106 112.67 47.9852 112.194 53.9732C116.801 50.8252 121.958 48.0732 126.949 47.2839C128.597 47.0212 129.836 47.2266 130.641 47.8852C131.616 48.6826 132.068 50.1746 131.821 51.7812C131.329 54.9772 128.586 58.1932 125.82 61.2132C121.548 65.8759 116.265 70.1159 110.382 73.6652C109.765 79.4492 109.07 85.1212 108.293 90.3452C110.341 89.4052 112.332 88.4186 114.23 87.4319C122.5 83.1359 137.492 73.9439 145.012 60.6399C148.336 54.7599 148.521 47.5972 145.481 42.3906Z" fill="#2F1514"/>
<text fill="white" xml:space="preserve" style="white-space: pre" font-family="Inter" font-size="11" font-weight="bold" letter-spacing="0em"><tspan x="39" y="85.5">COFFEE</tspan></text>
<text fill="white" xml:space="preserve" style="white-space: pre" font-family="Inter" font-size="11" font-weight="bold" letter-spacing="0em"><tspan x="50" y="18.5">EGG</tspan></text>
<text fill="white" xml:space="preserve" style="white-space: pre" font-family="Inter" font-size="11" font-weight="bold" letter-spacing="0em"><tspan x="32.1323" y="38.5">CONDENSE&#x2028;</tspan><tspan x="49.5132" y="51.5">MILK</tspan></text>
</svg>
