<svg width="1410" height="244" viewBox="0 0 1410 244" fill="none" xmlns="http://www.w3.org/2000/svg">
<path d="M148.747 165V155.712L170.006 153.029H174.96L193.742 155.712V165H148.747ZM149.779 48.7968V39.5088H176.405L176.611 51.6864H173.515L149.779 48.7968ZM166.704 165V39.5088H176.611L178.056 102.461V165H166.704ZM215.827 165L167.53 39.5088H194.774L232.958 138.787H226.56L262.68 39.5088H274.445L228.83 165H215.827ZM249.883 165V155.712L273.826 153.029H280.843L307.469 155.712V165H249.883ZM264.125 165C264.4 155.368 264.538 145.736 264.538 136.104C264.675 126.472 264.744 117.39 264.744 108.859L265.157 39.5088H292.402C292.126 49.1408 291.92 58.9104 291.782 68.8176C291.782 78.7248 291.782 88.632 291.782 98.5392V106.176C291.782 116.083 291.782 125.99 291.782 135.898C291.92 145.667 292.126 155.368 292.402 165H264.125ZM278.16 51.6864V39.5088H307.056V48.7968L280.843 51.6864H278.16ZM346.307 167.477C339.015 167.477 333.029 165.482 328.351 161.491C323.672 157.501 321.333 151.584 321.333 143.741C321.333 139.475 322.296 135.622 324.223 132.182C326.149 128.605 329.589 125.302 334.543 122.275C339.634 119.11 346.858 116.014 356.215 112.987C360.205 111.886 365.021 110.579 370.663 109.066C376.442 107.414 381.602 106.107 386.143 105.144V112.781C381.877 113.882 377.336 115.12 372.52 116.496C367.842 117.872 364.127 119.11 361.375 120.211C355.733 122.55 351.674 125.371 349.197 128.674C346.72 131.976 345.482 135.554 345.482 139.406C345.482 144.222 346.72 147.8 349.197 150.139C351.674 152.341 354.632 153.442 358.072 153.442C359.723 153.442 361.306 153.166 362.819 152.616C364.471 152.066 366.603 150.896 369.218 149.107C371.97 147.318 375.685 144.704 380.363 141.264L382.634 151.79H375.41C372.107 155.23 369.08 158.12 366.328 160.459C363.576 162.798 360.618 164.518 357.453 165.619C354.426 166.858 350.711 167.477 346.307 167.477ZM393.16 167.27C387.106 167.27 382.359 165.688 378.919 162.523C375.479 159.221 373.483 154.68 372.933 148.901V102.874C372.933 94.0672 371.763 88.1504 369.424 85.1232C367.085 81.9584 362.888 80.376 356.834 80.376C354.632 80.376 352.155 80.5824 349.403 80.9952C346.651 81.408 343.28 82.2336 339.29 83.472L350.435 76.4544L347.959 90.696C347.683 95.7872 346.376 99.5712 344.037 102.048C341.698 104.387 338.877 105.557 335.575 105.557C329.107 105.557 325.255 102.598 324.016 96.6816C324.979 88.976 329.039 82.784 336.194 78.1056C343.349 73.4272 353.119 71.088 365.503 71.088C376.923 71.088 385.179 73.7712 390.271 79.1376C395.362 84.504 397.907 93.448 397.907 105.97V147.869C397.907 152.822 399.627 155.299 403.067 155.299C404.994 155.299 407.127 153.854 409.466 150.965L414.007 154.68C411.805 159.358 408.984 162.661 405.544 164.587C402.242 166.376 398.114 167.27 393.16 167.27ZM458.47 208.757C448.425 208.757 440.444 207.725 434.527 205.661C428.748 203.597 424.551 200.845 421.937 197.405C419.46 193.965 418.222 190.25 418.222 186.259C418.222 181.581 419.942 177.384 423.382 173.669C426.822 170.091 432.532 166.789 440.513 163.762L442.783 165C440.307 168.165 438.449 170.917 437.211 173.256C436.11 175.733 435.559 178.554 435.559 181.718C435.559 187.635 437.692 191.832 441.958 194.309C446.223 196.923 452.484 198.23 460.74 198.23C470.51 198.23 477.871 196.648 482.825 193.483C487.916 190.456 490.462 186.741 490.462 182.338C490.462 179.035 489.292 176.146 486.953 173.669C484.614 171.192 480.623 169.954 474.982 169.954H454.342C450.902 169.954 447.737 169.816 444.847 169.541C441.958 169.266 439.481 168.715 437.417 167.89V167.064C432.601 165.688 429.023 163.624 426.684 160.872C424.483 158.12 423.382 154.886 423.382 151.171C423.382 147.043 424.689 142.984 427.303 138.994C429.918 135.003 433.908 130.738 439.275 126.197V124.133L446.499 127.229C444.572 129.43 443.127 131.494 442.164 133.421C441.339 135.347 440.926 137.618 440.926 140.232C440.926 142.434 441.683 144.291 443.196 145.805C444.847 147.181 447.806 147.869 452.071 147.869H475.188C488.26 147.869 497.548 150.277 503.052 155.093C508.556 159.771 511.308 166.17 511.308 174.288C511.308 180.342 509.313 185.984 505.323 191.213C501.332 196.579 495.415 200.845 487.572 204.01C479.729 207.174 470.028 208.757 458.47 208.757ZM460.327 132.595C447.943 132.595 438.518 129.843 432.051 124.339C425.583 118.698 422.35 111.267 422.35 102.048C422.35 92.8288 425.583 85.3984 432.051 79.7568C438.655 73.9776 448.081 71.088 460.327 71.088C472.711 71.088 482.137 73.9088 488.604 79.5504C495.071 85.0544 498.305 92.5536 498.305 102.048C498.305 110.992 495.003 118.354 488.398 124.133C481.931 129.774 472.574 132.595 460.327 132.595ZM459.915 124.133C465.006 124.133 468.859 122.069 471.473 117.941C474.087 113.813 475.395 108.309 475.395 101.429C475.395 94.824 474.087 89.5264 471.473 85.536C468.996 81.5456 465.35 79.5504 460.534 79.5504C455.718 79.5504 452.003 81.6144 449.388 85.7424C446.774 89.7328 445.467 95.0992 445.467 101.842C445.467 108.584 446.636 114.019 448.975 118.147C451.452 122.138 455.099 124.133 459.915 124.133ZM484.063 86.568V80.5824H485.302L509.863 70.8816L512.753 72.7392V86.568H484.063ZM521.259 165V156.95L539.835 153.235H550.981L569.763 156.95V165H521.259ZM532.611 165C532.749 162.11 532.817 158.326 532.817 153.648C532.955 148.832 533.024 143.878 533.024 138.787C533.161 133.558 533.23 129.018 533.23 125.165V116.29C533.23 111.061 533.161 106.726 533.024 103.286C533.024 99.8464 532.886 96.2 532.611 92.3472L519.814 90.696V83.2656L555.934 71.088L559.03 72.9456L558.411 100.19V125.165C558.411 129.018 558.411 133.558 558.411 138.787C558.549 143.878 558.617 148.832 558.617 153.648C558.755 158.326 558.893 162.11 559.03 165H532.611ZM545.821 54.7824C541.555 54.7824 537.977 53.4752 535.088 50.8608C532.198 48.1088 530.753 44.7376 530.753 40.7472C530.753 36.344 532.198 32.904 535.088 30.4272C537.977 27.8128 541.555 26.5056 545.821 26.5056C549.811 26.5056 553.251 27.8128 556.141 30.4272C559.03 32.904 560.475 36.344 560.475 40.7472C560.475 44.7376 559.03 48.1088 556.141 50.8608C553.251 53.4752 549.811 54.7824 545.821 54.7824ZM626.349 167.477C617.68 167.477 609.906 165.688 603.026 162.11C596.146 158.395 590.642 153.029 586.514 146.011C582.523 138.856 580.528 130.118 580.528 119.798C580.528 109.478 582.73 100.741 587.133 93.5856C591.674 86.2928 597.59 80.72 604.883 76.8672C612.314 73.0144 620.432 71.088 629.238 71.088C635.568 71.088 641.21 72.3264 646.163 74.8032C651.254 77.1424 655.382 80.376 658.547 84.504C661.712 88.4944 663.57 92.9664 664.12 97.92C662.331 103.837 658.478 106.795 652.562 106.795C649.122 106.795 646.232 105.626 643.893 103.286C641.554 100.947 640.109 97.0944 639.558 91.728L636.669 77.28L649.053 84.7104C643.136 81.8208 637.288 80.376 631.509 80.376C627.381 80.376 623.459 81.6832 619.744 84.2976C616.029 86.7744 613.002 90.696 610.662 96.0624C608.323 101.429 607.154 108.378 607.154 116.909C607.154 128.054 609.699 136.654 614.79 142.709C619.882 148.626 626.624 151.584 635.018 151.584C639.834 151.584 644.168 150.552 648.021 148.488C652.011 146.286 655.314 143.397 657.928 139.819L663.914 144.566C660.611 152.272 655.726 158.051 649.259 161.904C642.93 165.619 635.293 167.477 626.349 167.477ZM805.412 168.302C793.166 168.302 782.089 165.757 772.182 160.666C762.274 155.574 754.431 148.144 748.652 138.374C742.873 128.467 739.983 116.427 739.983 102.254C739.983 87.944 743.01 75.904 749.065 66.1344C755.119 56.3648 763.169 48.9344 773.214 43.8432C783.396 38.752 794.473 36.2064 806.444 36.2064C812.911 36.2064 819.172 36.9632 825.226 38.4768C831.418 39.9904 837.473 42.3984 843.39 45.7008L844.215 74.3904H830.593L824.607 45.0816L837.198 47.7648V58.4976C832.382 54.232 827.772 51.2048 823.369 49.416C818.966 47.4896 814.562 46.5264 810.159 46.5264C802.866 46.5264 796.055 48.5216 789.726 52.512C783.534 56.5024 778.58 62.6256 774.865 70.8816C771.15 79.1376 769.292 89.664 769.292 102.461C769.292 115.12 771.081 125.578 774.658 133.834C778.236 142.09 783.052 148.213 789.106 152.203C795.161 156.056 801.834 157.982 809.127 157.982C813.943 157.982 818.897 157.088 823.988 155.299C829.079 153.373 833.964 150.552 838.642 146.837V156.744L826.258 159.427L832.244 130.325H845.66L844.834 158.808C839.468 161.835 833.482 164.174 826.878 165.826C820.273 167.477 813.118 168.302 805.412 168.302ZM883.472 167.477C876.179 167.477 870.193 165.482 865.515 161.491C860.836 157.501 858.497 151.584 858.497 143.741C858.497 139.475 859.46 135.622 861.387 132.182C863.313 128.605 866.753 125.302 871.707 122.275C876.798 119.11 884.022 116.014 893.379 112.987C897.369 111.886 902.185 110.579 907.827 109.066C913.606 107.414 918.766 106.107 923.307 105.144V112.781C919.041 113.882 914.5 115.12 909.684 116.496C905.006 117.872 901.291 119.11 898.539 120.211C892.897 122.55 888.838 125.371 886.361 128.674C883.884 131.976 882.646 135.554 882.646 139.406C882.646 144.222 883.884 147.8 886.361 150.139C888.838 152.341 891.796 153.442 895.236 153.442C896.888 153.442 898.47 153.166 899.984 152.616C901.635 152.066 903.768 150.896 906.382 149.107C909.134 147.318 912.849 144.704 917.528 141.264L919.798 151.79H912.574C909.272 155.23 906.244 158.12 903.492 160.459C900.74 162.798 897.782 164.518 894.617 165.619C891.59 166.858 887.875 167.477 883.472 167.477ZM930.324 167.27C924.27 167.27 919.523 165.688 916.083 162.523C912.643 159.221 910.648 154.68 910.097 148.901V102.874C910.097 94.0672 908.928 88.1504 906.588 85.1232C904.249 81.9584 900.052 80.376 893.998 80.376C891.796 80.376 889.32 80.5824 886.568 80.9952C883.816 81.408 880.444 82.2336 876.454 83.472L887.6 76.4544L885.123 90.696C884.848 95.7872 883.54 99.5712 881.201 102.048C878.862 104.387 876.041 105.557 872.739 105.557C866.272 105.557 862.419 102.598 861.18 96.6816C862.144 88.976 866.203 82.784 873.358 78.1056C880.513 73.4272 890.283 71.088 902.667 71.088C914.088 71.088 922.344 73.7712 927.435 79.1376C932.526 84.504 935.072 93.448 935.072 105.97V147.869C935.072 152.822 936.792 155.299 940.232 155.299C942.158 155.299 944.291 153.854 946.63 150.965L951.171 154.68C948.969 159.358 946.148 162.661 942.708 164.587C939.406 166.376 935.278 167.27 930.324 167.27ZM957.243 165V156.95L976.851 153.235H991.299L1010.7 156.95V165H957.243ZM969.008 165C969.421 151.79 969.627 138.512 969.627 125.165V85.9488H956.005V75.6288L978.296 72.7392L969.627 77.28L969.834 75.0096C970.797 65.6528 972.311 58.0848 974.375 52.3056C976.576 46.5264 979.947 41.3664 984.488 36.8256C988.891 32.4224 993.776 29.2576 999.143 27.3312C1004.65 25.4048 1009.94 24.4416 1015.04 24.4416C1019.99 24.4416 1024.46 25.4048 1028.45 27.3312C1032.58 29.12 1035.13 32.2848 1036.09 36.8256C1036.09 40.128 1034.92 42.88 1032.58 45.0816C1030.38 47.2832 1027.28 48.384 1023.29 48.384C1017.51 48.384 1012.21 44.6688 1007.4 37.2384L1001.21 30.6336L1018.96 26.5056L1021.85 32.0784C1020.88 31.3904 1019.78 30.84 1018.54 30.4272C1017.31 30.0144 1016.14 29.808 1015.04 29.808C1011.18 29.808 1007.47 31.4592 1003.89 34.7616C1000.04 38.752 997.423 44.3936 996.047 51.6864C994.671 58.9792 994.327 69.368 995.015 82.8528V125.165C995.015 138.512 995.221 151.79 995.634 165H969.008ZM982.218 85.9488V73.9776H1016.89V85.9488H982.218ZM1025.37 165V156.95L1044.98 153.235H1059.43L1078.83 156.95V165H1025.37ZM1037.14 165C1037.55 151.79 1037.76 138.512 1037.76 125.165V85.9488H1024.13V75.6288L1046.42 72.7392L1037.76 77.28L1037.96 75.0096C1038.93 65.6528 1040.44 58.0848 1042.5 52.3056C1044.7 46.5264 1048.08 41.3664 1052.62 36.8256C1057.02 32.4224 1061.9 29.2576 1067.27 27.3312C1072.77 25.4048 1078.07 24.4416 1083.16 24.4416C1088.12 24.4416 1092.59 25.4048 1096.58 27.3312C1100.71 29.12 1103.25 32.2848 1104.22 36.8256C1104.22 40.128 1103.05 42.88 1100.71 45.0816C1098.51 47.2832 1095.41 48.384 1091.42 48.384C1085.64 48.384 1080.34 44.6688 1075.53 37.2384L1069.33 30.6336L1087.09 26.5056L1089.97 32.0784C1089.01 31.3904 1087.91 30.84 1086.67 30.4272C1085.43 30.0144 1084.26 29.808 1083.16 29.808C1079.31 29.808 1075.6 31.4592 1072.02 34.7616C1068.17 38.752 1065.55 44.3936 1064.17 51.6864C1062.8 58.9792 1062.45 69.368 1063.14 82.8528V125.165C1063.14 138.512 1063.35 151.79 1063.76 165H1037.14ZM1050.35 85.9488V73.9776H1085.02V85.9488H1050.35ZM1139.73 167.477C1130.79 167.477 1122.81 165.619 1115.79 161.904C1108.91 158.051 1103.54 152.616 1099.69 145.598C1095.84 138.443 1093.91 129.912 1093.91 120.005C1093.91 109.685 1096.11 100.878 1100.52 93.5856C1105.06 86.2928 1110.91 80.72 1118.06 76.8672C1125.35 73.0144 1132.99 71.088 1140.97 71.088C1152.67 71.088 1161.89 74.7344 1168.63 82.0272C1175.51 89.1824 1178.95 98.5392 1178.95 110.098C1178.95 114.088 1178.54 117.459 1177.71 120.211H1104.85V110.923H1143.45C1147.99 110.923 1151.02 110.029 1152.53 108.24C1154.04 106.314 1154.8 103.493 1154.8 99.7776C1154.8 93.7232 1153.29 88.976 1150.26 85.536C1147.37 82.096 1143.79 80.376 1139.53 80.376C1136.5 80.376 1133.54 81.5456 1130.65 83.8848C1127.76 86.224 1125.35 90.0768 1123.43 95.4432C1121.64 100.672 1120.74 107.896 1120.74 117.115C1120.74 128.811 1123.36 137.48 1128.59 143.122C1133.82 148.763 1140.35 151.584 1148.2 151.584C1153.56 151.584 1158.17 150.552 1162.02 148.488C1165.88 146.424 1169.32 143.741 1172.34 140.438L1178.12 145.805C1170.69 160.253 1157.9 167.477 1139.73 167.477ZM1237.69 167.477C1228.75 167.477 1220.77 165.619 1213.75 161.904C1206.87 158.051 1201.5 152.616 1197.65 145.598C1193.8 138.443 1191.87 129.912 1191.87 120.005C1191.87 109.685 1194.07 100.878 1198.48 93.5856C1203.02 86.2928 1208.87 80.72 1216.02 76.8672C1223.31 73.0144 1230.95 71.088 1238.93 71.088C1250.63 71.088 1259.85 74.7344 1266.59 82.0272C1273.47 89.1824 1276.91 98.5392 1276.91 110.098C1276.91 114.088 1276.5 117.459 1275.67 120.211H1202.81V110.923H1241.41C1245.95 110.923 1248.98 110.029 1250.49 108.24C1252 106.314 1252.76 103.493 1252.76 99.7776C1252.76 93.7232 1251.25 88.976 1248.22 85.536C1245.33 82.096 1241.75 80.376 1237.49 80.376C1234.46 80.376 1231.5 81.5456 1228.61 83.8848C1225.72 86.224 1223.31 90.0768 1221.39 95.4432C1219.6 100.672 1218.7 107.896 1218.7 117.115C1218.7 128.811 1221.32 137.48 1226.55 143.122C1231.78 148.763 1238.31 151.584 1246.16 151.584C1251.52 151.584 1256.13 150.552 1259.98 148.488C1263.84 146.424 1267.28 143.741 1270.3 140.438L1276.08 145.805C1268.65 160.253 1255.86 167.477 1237.69 167.477Z" fill="#0B3924"/>
<path d="M46 0L58.4242 33.5758L92 46L58.4242 58.4242L46 92L33.5758 58.4242L0 46L33.5758 33.5758L46 0Z" fill="#FFC107"/>
<path d="M1364 135L1376.42 168.576L1410 181L1376.42 193.424L1364 227L1351.58 193.424L1318 181L1351.58 168.576L1364 135Z" fill="#FFC107"/>
</svg>
