<svg width="150" height="150" viewBox="0 0 150 150" fill="none" xmlns="http://www.w3.org/2000/svg">
<rect width="150" height="150" fill="white"/>
<path d="M17 82L20.886 133H98.7844L102 82H17Z" fill="#721E1C"/>
<path d="M16.1473 51.3364C47.9398 53.5667 73.9289 56.0054 103.833 51.3364C108.544 17.2229 11.7206 17.8878 16.1473 51.3364Z" fill="#F0BA42"/>
<path d="M102.5 82L104 51H16L17.5 82H102.5Z" fill="#FCD276"/>
<path d="M106.789 143.981H13.0383C11.861 143.981 10.8756 143.085 10.765 141.913L1.01029 38.497C0.891623 37.241 1.81295 36.1276 3.06895 36.0103C4.32895 35.893 5.43695 36.813 5.55562 38.069L15.1156 139.416H104.712L114.272 38.069C114.39 36.813 115.493 35.8903 116.758 36.0103C118.013 36.1276 118.936 37.241 118.817 38.497L109.061 141.913C108.95 143.085 107.966 143.981 106.789 143.981Z" fill="#2F1514"/>
<path d="M146.481 68.3906C143.92 64.0052 139.412 61.1732 133.444 60.2012C127.609 59.2532 121.285 60.3026 114.377 63.3573C114.062 68.3106 113.67 73.9852 113.194 79.9732C117.801 76.8252 122.958 74.0732 127.949 73.2839C129.597 73.0212 130.836 73.2266 131.641 73.8852C132.616 74.6826 133.068 76.1746 132.821 77.7812C132.329 80.9772 129.586 84.1932 126.82 87.2132C122.548 91.8759 117.265 96.1159 111.382 99.6652C110.765 105.449 110.07 111.121 109.293 116.345C111.341 115.405 113.332 114.419 115.23 113.432C123.5 109.136 138.492 99.9439 146.012 86.6399C149.336 80.7599 149.521 73.5972 146.481 68.3906Z" fill="#2F1514"/>
<text fill="white" xml:space="preserve" style="white-space: pre" font-family="Inter" font-size="11" font-weight="bold" letter-spacing="0em"><tspan x="40" y="111.5">COFFEE</tspan></text>
<text fill="white" xml:space="preserve" style="white-space: pre" font-family="Inter" font-size="11" font-weight="bold" letter-spacing="0em"><tspan x="51" y="44.5">EGG</tspan></text>
<text fill="white" xml:space="preserve" style="white-space: pre" font-family="Inter" font-size="11" font-weight="bold" letter-spacing="0em"><tspan x="33.1323" y="64.5">CONDENSE&#x2028;</tspan><tspan x="50.5132" y="77.5">MILK</tspan></text>
</svg>
